REM DIRINDEX 1\2\3,1\2\4,1\2\5,1\2\6
REM DIRNAME folder01,folder02,folder03,folder04,folder05,folder06
TITLE ""
FILE "160 160.mp3" MP3
  TRACK 01 AUDIO
    TITLE "0:"
    INDEX 01 00:00:00
  TRACK 02 AUDIO
    TITLE "3:cjc157_5865"
    INDEX 01 00:00:11
  TRACK 03 AUDIO
    TITLE "0:"
    INDEX 01 00:01:26
  TRACK 04 AUDIO
    TITLE "4:cjc157_5866"
    INDEX 01 00:01:73
  TRACK 05 AUDIO
    TITLE "0:"
    INDEX 01 00:03:25
  TRACK 06 AUDIO
    TITLE "5:cjc157_5867"
    INDEX 01 00:03:70
  TRACK 07 AUDIO
    TITLE "0:"
    INDEX 01 00:07:09
  TRACK 08 AUDIO
    TITLE "3:cjc157_5868"
    INDEX 01 00:07:56
  TRACK 09 AUDIO
    TITLE "0:"
    INDEX 01 00:08:72
  TRACK 10 AUDIO
    TITLE "4:cjc157_5869"
    INDEX 01 00:09:40
  TRACK 11 AUDIO
    TITLE "0:"
    INDEX 01 00:10:39
  TRACK 12 AUDIO
    TITLE "5:cjc157_5870"
    INDEX 01 00:11:21
  TRACK 13 AUDIO
    TITLE "0:"
    INDEX 01 00:14:15
  TRACK 14 AUDIO
    TITLE "5:cjc157_5871"
    INDEX 01 00:14:62
  TRACK 15 AUDIO
    TITLE "0:"
    INDEX 01 00:18:46
  TRACK 16 AUDIO
    TITLE "5:cjc157_5872"
    INDEX 01 00:19:16
  TRACK 17 AUDIO
    TITLE "0:"
    INDEX 01 00:21:68
  TRACK 18 AUDIO
    TITLE "3:cjc157_5873"
    INDEX 01 00:22:40
  TRACK 19 AUDIO
    TITLE "0:"
    INDEX 01 00:23:51
  TRACK 20 AUDIO
    TITLE "4:cjc157_5874"
    INDEX 01 00:24:24
  TRACK 21 AUDIO
    TITLE "0:"
    INDEX 01 00:25:37
  TRACK 22 AUDIO
    TITLE "5:cjc157_5875"
    INDEX 01 00:26:01
  TRACK 23 AUDIO
    TITLE "0:"
    INDEX 01 00:30:14
  TRACK 24 AUDIO
    TITLE "3:cjc157_5876"
    INDEX 01 00:30:59
  TRACK 25 AUDIO
    TITLE "0:"
    INDEX 01 00:32:35
  TRACK 26 AUDIO
    TITLE "4:cjc157_5877"
    INDEX 01 00:33:11
  TRACK 27 AUDIO
    TITLE "0:"
    INDEX 01 00:35:06
  TRACK 28 AUDIO
    TITLE "5:cjc157_5878"
    INDEX 01 00:35:51
  TRACK 29 AUDIO
    TITLE "0:"
    INDEX 01 00:38:53
  TRACK 30 AUDIO
    TITLE "3:cjc157_5879"
    INDEX 01 00:39:25
  TRACK 31 AUDIO
    TITLE "0:"
    INDEX 01 00:40:54
  TRACK 32 AUDIO
    TITLE "4:cjc157_5880"
    INDEX 01 00:41:26
  TRACK 33 AUDIO
    TITLE "0:"
    INDEX 01 00:42:49
  TRACK 34 AUDIO
    TITLE "5:cjc157_5881"
    INDEX 01 00:43:17
  TRACK 35 AUDIO
    TITLE "0:"
    INDEX 01 00:46:19
  TRACK 36 AUDIO
    TITLE "5:cjc157_5882"
    INDEX 01 00:46:64
  TRACK 37 AUDIO
    TITLE "0:"
    INDEX 01 00:50:50
  TRACK 38 AUDIO
    TITLE "5:cjc157_5883"
    INDEX 01 00:51:22
  TRACK 39 AUDIO
    TITLE "0:"
    INDEX 01 00:55:22
  TRACK 40 AUDIO
    TITLE "3:cjc157_5884"
    INDEX 01 00:55:69
  TRACK 41 AUDIO
    TITLE "0:"
    INDEX 01 00:57:33
  TRACK 42 AUDIO
    TITLE "4:cjc157_5885"
    INDEX 01 00:58:03
  TRACK 43 AUDIO
    TITLE "0:"
    INDEX 01 00:59:38
  TRACK 44 AUDIO
    TITLE "5:cjc157_5886"
    INDEX 01 01:00:08
  TRACK 45 AUDIO
    TITLE "0:"
    INDEX 01 01:04:01
  TRACK 46 AUDIO
    TITLE "3:cjc157_5887"
    INDEX 01 01:04:45
  TRACK 47 AUDIO
    TITLE "0:"
    INDEX 01 01:06:12
  TRACK 48 AUDIO
    TITLE "4:cjc157_5888"
    INDEX 01 01:06:59
  TRACK 49 AUDIO
    TITLE "0:"
    INDEX 01 01:08:29
  TRACK 50 AUDIO
    TITLE "5:cjc157_5889"
    INDEX 01 01:09:03
  TRACK 51 AUDIO
    TITLE "0:"
    INDEX 01 01:12:24
  TRACK 52 AUDIO
    TITLE "5:cjc157_5890"
    INDEX 01 01:12:66
  TRACK 53 AUDIO
    TITLE "0:"
    INDEX 01 01:15:46
  TRACK 54 AUDIO
    TITLE "3:cjc157_5891"
    INDEX 01 01:16:20
  TRACK 55 AUDIO
    TITLE "0:"
    INDEX 01 01:17:61
  TRACK 56 AUDIO
    TITLE "4:cjc157_5892"
    INDEX 01 01:18:37
  TRACK 57 AUDIO
    TITLE "0:"
    INDEX 01 01:19:58
  TRACK 58 AUDIO
    TITLE "5:cjc157_5893"
    INDEX 01 01:20:26
  TRACK 59 AUDIO
    TITLE "0:"
    INDEX 01 01:24:28
  TRACK 60 AUDIO
    TITLE "5:cjc157_5894"
    INDEX 01 01:25:04
  TRACK 61 AUDIO
    TITLE "0:"
    INDEX 01 01:28:27
  TRACK 62 AUDIO
    TITLE "5:cjc157_5895"
    INDEX 01 01:28:72
  TRACK 63 AUDIO
    TITLE "0:"
    INDEX 01 01:31:73
  TRACK 64 AUDIO
    TITLE "3:cjc157_5896"
    INDEX 01 01:32:39
  TRACK 65 AUDIO
    TITLE "0:"
    INDEX 01 01:34:12
  TRACK 66 AUDIO
    TITLE "4:cjc157_5897"
    INDEX 01 01:34:59
  TRACK 67 AUDIO
    TITLE "0:"
    INDEX 01 01:36:23
  TRACK 68 AUDIO
    TITLE "5:cjc157_5898"
    INDEX 01 01:36:62
  TRACK 69 AUDIO
    TITLE "0:"
    INDEX 01 01:40:17
  TRACK 70 AUDIO
    TITLE "3:cjc157_5899"
    INDEX 01 01:40:68
  TRACK 71 AUDIO
    TITLE "0:"
    INDEX 01 01:42:41
  TRACK 72 AUDIO
    TITLE "4:cjc157_5900"
    INDEX 01 01:43:11
  TRACK 73 AUDIO
    TITLE "0:"
    INDEX 01 01:44:66
  TRACK 74 AUDIO
    TITLE "5:cjc157_5901"
    INDEX 01 01:45:42
  TRACK 75 AUDIO
    TITLE "0:"
    INDEX 01 01:48:38
